<?xml version="1.0" standalone="no"?>
<!DOCTYPE svg PUBLIC "-//W3C//DTD SVG 20010904//EN"
 "http://www.w3.org/TR/2001/REC-SVG-20010904/DTD/svg10.dtd">
<svg version="1.0" xmlns="http://www.w3.org/2000/svg"
 width="400.000000pt" height="400.000000pt" viewBox="0 0 400.000000 400.000000"
 preserveAspectRatio="xMidYMid meet">

<g transform="translate(0.000000,400.000000) scale(0.100000,-0.100000)"
fill="#000000" stroke="none">
<path d="M1390 2656 l0 -303 58 -12 c146 -29 233 -143 248 -324 l6 -72 -141
-108 c-78 -60 -141 -110 -141 -113 0 -2 83 -4 184 -4 l183 0 39 31 c165 133
385 126 554 -18 l39 -33 187 2 187 3 -138 113 -137 112 -64 0 c-62 0 -64 1
-64 25 0 24 3 25 55 25 52 0 55 2 55 24 0 13 3 31 6 40 5 13 -8 16 -88 18 -92
3 -93 3 -93 28 0 25 1 25 95 28 l95 3 17 74 c57 251 257 455 526 534 57 17
226 51 253 51 5 0 9 41 9 90 l0 90 -965 0 -965 0 0 -304z"/>
<path d="M1200 2730 l0 -180 -25 0 -25 0 0 140 0 140 -432 -1 -433 0 43 -37
c110 -96 450 -281 652 -355 113 -42 226 -73 303 -82 l57 -7 0 281 0 281 -70 0
-70 0 0 -180z"/>
<path d="M2029 1790 c-53 -9 -118 -40 -171 -82 l-38 -30 0 -79 0 -79 280 0
280 0 0 74 0 75 -56 40 c-95 68 -199 96 -295 81z"/>
<path d="M1360 1595 l0 -75 183 0 c100 0 192 -3 205 -6 21 -6 22 -4 22 68 l0
75 -77 7 c-42 3 -134 6 -205 6 l-128 0 0 -75z"/>
<path d="M2440 1579 c0 -69 1 -71 23 -65 12 3 102 6 200 6 l177 0 0 65 0 65
-200 0 -200 0 0 -71z"/>
<path d="M215 1319 c-67 -21 -115 -89 -115 -163 0 -133 135 -214 256 -155 61
29 66 39 39 73 l-23 29 -45 -22 c-42 -20 -48 -21 -80 -7 -65 27 -78 97 -27
148 27 26 36 30 67 25 20 -4 46 -16 58 -27 l22 -21 26 34 c25 33 25 35 9 50
-45 41 -122 56 -187 36z"/>
<path d="M555 1319 c-67 -21 -115 -89 -115 -162 0 -146 164 -226 291 -143 96
64 94 219 -3 284 -43 28 -122 38 -173 21z m126 -98 c41 -41 40 -91 -1 -133
-27 -26 -36 -30 -68 -25 -47 8 -82 47 -82 90 0 85 92 126 151 68z"/>
<path d="M860 1154 l0 -175 43 3 42 3 5 89 5 89 70 -91 c66 -87 72 -92 107
-92 l38 0 0 176 0 175 -42 -3 -43 -3 -5 -90 -5 -89 -69 92 c-65 89 -69 92
-107 92 l-39 0 0 -176z"/>
<path d="M1250 1155 l0 -177 98 4 c106 4 160 23 195 69 41 56 41 152 -1 208
-37 50 -78 65 -189 69 l-103 4 0 -177z m199 69 c26 -21 31 -33 31 -67 -1 -64
-36 -97 -104 -97 l-36 0 0 95 0 95 39 0 c28 0 49 -8 70 -26z"/>
<path d="M1722 1313 c-13 -25 -142 -323 -142 -328 0 -3 20 -5 46 -5 42 0 46 2
60 35 l14 35 69 0 69 0 12 -35 c11 -34 13 -35 61 -35 27 0 49 1 49 3 0 1 -33
79 -73 172 l-72 170 -42 3 c-32 2 -44 -1 -51 -15z m64 -138 c20 -49 18 -55
-22 -55 -30 0 -35 3 -29 18 4 9 12 29 17 45 5 15 12 27 14 27 3 0 12 -16 20
-35z"/>
<path d="M2190 1155 l0 -175 45 0 45 0 0 65 0 65 75 0 75 0 0 40 0 40 -75 0
-75 0 0 30 0 30 80 0 80 0 0 40 0 40 -125 0 -125 0 0 -175z"/>
<path d="M2589 1321 c-136 -44 -163 -228 -44 -309 50 -35 131 -40 189 -12 62
30 89 70 94 141 5 71 -17 121 -68 156 -41 26 -126 39 -171 24z m129 -107 c33
-37 30 -88 -8 -126 -27 -26 -36 -30 -68 -25 -70 12 -105 90 -66 145 34 48 102
51 142 6z"/>
<path d="M2890 1155 l0 -175 45 0 45 0 0 50 c0 49 1 50 29 50 25 0 34 -8 57
-50 27 -49 28 -50 76 -50 26 0 48 3 48 7 0 3 -14 28 -30 54 l-31 47 26 37 c51
77 21 171 -63 195 -20 5 -74 10 -119 10 l-83 0 0 -175z m189 81 c7 -8 11 -27
9 -43 -3 -26 -6 -28 -55 -31 l-53 -3 0 45 0 46 44 0 c26 0 48 -6 55 -14z"/>
<path d="M3343 1319 c-49 -14 -100 -71 -110 -121 -26 -125 65 -228 190 -215
29 3 69 13 90 23 l38 18 -3 71 -3 70 -37 3 -38 3 0 -45 c0 -54 -22 -72 -76
-62 -69 13 -97 98 -50 153 20 23 32 28 69 28 30 0 52 -6 66 -20 22 -19 22 -19
46 10 13 17 23 35 22 40 -2 6 -23 20 -47 33 -47 23 -101 27 -157 11z"/>
<path d="M3620 1155 l0 -175 135 0 135 0 0 40 0 40 -90 0 -90 0 0 30 0 30 81
0 80 0 -3 38 -3 37 -77 3 c-75 3 -78 4 -78 27 0 25 1 25 85 25 l85 0 0 40 0
40 -130 0 -130 0 0 -175z"/>
<path d="M1990 1135 l0 -35 65 0 65 0 0 35 0 35 -65 0 -65 0 0 -35z"/>
</g>
</svg>
